<svg fill="#61676B" xmlns="http://www.w3.org/2000/svg" xmlns:xlink="http://www.w3.org/1999/xlink" version="1.1" x="0px" y="0px" viewBox="0 0 110 110" enable-background="new 0 0 110 110" xml:space="preserve"><g><path d="M55,5C27.39,5,5,27.39,5,55c0,27.61,22.39,50,50,50c27.61,0,50-22.39,50-50C105,27.39,82.61,5,55,5z M78.4,70.61   c-0.051,0.72-0.11,1.409-0.16,2.08c-0.09,0.649-0.21,1.27-0.311,1.859c-0.05,0.29-0.109,0.58-0.149,0.86   c-0.08,0.27-0.15,0.53-0.221,0.79c-0.29,1.02-0.479,1.899-0.76,2.6C76.29,80.2,76,81,76,81s0.07-0.84,0.19-2.32   c0.09-0.72,0.04-1.63,0.05-2.63v-0.78c-0.03-0.27-0.05-0.539-0.08-0.819c-0.05-0.561-0.09-1.15-0.17-1.75   c-0.11-0.59-0.23-1.21-0.351-1.851c-0.13-0.63-0.37-1.26-0.55-1.899c-0.17-0.65-0.51-1.26-0.76-1.891   c-0.271-0.64-0.67-1.22-0.99-1.829c-0.8-1.16-1.649-2.29-2.74-3.23c-1.01-0.99-2.25-1.78-3.479-2.51   c-1.28-0.69-2.61-1.28-3.98-1.75c-1.38-0.46-2.76-0.83-4.14-1.101c-1.37-0.29-2.74-0.449-4.02-0.6c-1.3-0.11-2.53-0.2-3.67-0.22   c-2.28-0.05-4.18,0.05-5.47,0.16c-0.32,0.02-0.6,0.05-0.84,0.08V67L28,49l17-18v10.92c0.46,0.07,1.05,0.16,1.77,0.3   c1.65,0.3,3.94,0.81,6.63,1.63c1.34,0.39,2.791,0.9,4.291,1.46c1.51,0.6,3.079,1.25,4.67,2.07c1.59,0.79,3.189,1.73,4.75,2.79   c1.56,1.06,3.069,2.3,4.46,3.65c1.359,1.4,2.64,2.871,3.62,4.53c1.04,1.601,1.76,3.36,2.319,5.04c0.21,0.87,0.471,1.69,0.59,2.53   c0.101,0.83,0.271,1.63,0.28,2.42S78.45,69.88,78.4,70.61z"></path></g></svg>